<svg height="512pt" viewBox="0 0 512 512" width="512pt" xmlns="http://www.w3.org/2000/svg"><path d="m512 256c0 141.386719-114.613281 256-256 256s-256-114.613281-256-256 114.613281-256 256-256 256 114.613281 256 256zm0 0" fill="#004eb1"/><path d="m503.15625 189.121094-89.964844-90.316406c-9.691406-9.691407-25.410156-9.691407-35.105468 0l-84.273438 84.273437-73.371094-73.367187-38.257812 12.257812-15.84375 69.132812 23.859375 24.078126-4.066407 27.519531 24.03125 24.03125-21.921874 21.921875-11.042969-11.042969-21.210938 21.214844 11.039063 11.039062-63.371094 63.375 14.953125 55.257813 76.105469 76.101562c19.636718 4.824219 40.15625 7.402344 61.285156 7.402344 141.386719 0 256-114.613281 256-256 0-23.140625-3.089844-45.558594-8.84375-66.878906zm0 0" fill="#002d6b"/><path d="m166.339844 191.101562 28.785156-9.222656-8.992188 60.820313 39.886719-83.300781-20.675781 6.621093 15.097656-56.308593-38.257812 12.257812zm0 0" fill="#ffec97"/><path d="m324.972656 289.171875 15.613282 20.761719-51.90625 9.867187 78.871093 8.859375-11.210937-14.910156 49.96875-3.636719-20.75-27.59375zm0 0" fill="#ffdb2d"/><path d="m181.898438 365.203125c-4.949219-4.953125-12.976563-4.953125-17.925782 0-4.949218 4.949219-4.949218 12.972656 0 17.925781 4.949219 4.949219 12.976563 4.949219 17.925782 0 4.953124-4.953125 4.953124-12.976562 0-17.925781zm0 0" fill="#fff5cb"/><path d="m118.609375 428.496094-14.953125-55.261719 67.648438-67.644531 35.105468 35.105468zm0 0" fill="#00acea"/><path d="m206.40625 340.695312-87.796875 87.792969-7.472656-27.625 77.71875-77.71875zm0 0" fill="#009ae5"/><path d="m220.902344 326.203125-35.105469-35.105469 192.289063-192.289062c9.695312-9.695313 25.414062-9.695313 35.105468 0 9.695313 9.691406 9.695313 25.410156 0 35.105468zm0 0" fill="#ffec97"/><path d="m413.191406 133.910156-192.292968 192.289063-17.550782-17.550781 209.84375-209.839844c4.851563 4.851562 7.269532 11.203125 7.269532 17.550781s-2.425782 12.707031-7.269532 17.550781zm0 0" fill="#ffdb2d"/><path d="m210.519531 315.820312-14.339843-14.339843 189.464843-189.464844c3.929688-3.929687 10.300781-3.929687 14.226563 0l.109375.109375c3.929687 3.929688 3.929687 10.300781 0 14.230469zm0 0" fill="#fff5cb"/><path d="m399.980469 126.355469-189.460938 189.464843-7.167969-7.171874 196.574219-196.574219.058594.058593c3.921875 3.921876 3.929687 10.292969-.003906 14.222657zm0 0" fill="#ffed97"/><path d="m155.984375 298.824219 21.214844-21.214844 57.1875 57.1875-21.214844 21.210937zm0 0" fill="#7fc8f1"/><path d="m184.578125 327.414062 21.214844-21.210937 28.59375 28.59375-21.210938 21.214844zm0 0" fill="#49bbee"/></svg>