<svg xmlns="http://www.w3.org/2000/svg" viewBox="0 0 166.52 64.52"><defs><style>.cls-1{fill:#dc8627;}</style></defs><title>logo-title</title><g id="Ebene_2" data-name="Ebene 2"><g id="Layer_2" data-name="Layer 2"><path class="cls-1" d="M18.14,33.12V28h8V40.68H14.84a18.31,18.31,0,0,1-7.47-1.47,11.86,11.86,0,0,1-5.27-4.4A12.88,12.88,0,0,1,.18,27.62a11.94,11.94,0,0,1,1.15-5.34,10.81,10.81,0,0,1,3.19-3.9A14.06,14.06,0,0,1,9.2,16.06a20.23,20.23,0,0,1,5.64-.77H26.09v7.56H18.14a36.73,36.73,0,0,0-4,.16,10.28,10.28,0,0,0-2.29.53,4.29,4.29,0,0,0-1.78,1.28,5.63,5.63,0,0,0-.89,3.24,5.42,5.42,0,0,0,.89,3.21,3.83,3.83,0,0,0,2,1.29,15.74,15.74,0,0,0,2.39.44Q15.71,33.12,18.14,33.12Z" transform="translate(-0.18 -7.04)"/><path class="cls-1" d="M27.48,40.68V7H47.33a21.44,21.44,0,0,1,7.11,1.07A16,16,0,0,1,59.64,11a14,14,0,0,1,3.53,4.91A19.83,19.83,0,0,1,64.57,24,25.1,25.1,0,0,1,63,31.78a13.15,13.15,0,0,1-3.4,5.08,15.17,15.17,0,0,1-5.19,2.89,23.18,23.18,0,0,1-7.68.93Zm11.23-25.3V32.29h6.41a6.08,6.08,0,0,0,3.5-.92A7.38,7.38,0,0,0,50.78,29a12.66,12.66,0,0,0,1.07-5.16,11.46,11.46,0,0,0-.94-5,6.88,6.88,0,0,0-2.25-2.54,6.27,6.27,0,0,0-3.59-.92Z" transform="translate(-0.18 -7.04)"/><path class="cls-1" d="M62.94,40.68,74,7H90.72L102,40.68H89.25l-2.12-6.06h-10L75,40.68ZM82.4,14.49,77.58,27.82h9.27Z" transform="translate(-0.18 -7.04)"/><path class="cls-1" d="M101,7H112V40.68H101Z" transform="translate(-0.18 -7.04)"/><path class="cls-1" d="M20.31,50.27v6.34H15a18.94,18.94,0,0,0-2.65.13,6.1,6.1,0,0,0-1.53.44,3,3,0,0,0-1.18,1.08A5.43,5.43,0,0,0,9,61a5.37,5.37,0,0,0,.6,2.7A2.62,2.62,0,0,0,11,64.74a7.91,7.91,0,0,0,1.6.37,21.34,21.34,0,0,0,2.45.1v-4.3h5.31V71.55H12.79a10.18,10.18,0,0,1-5-1.23,8.67,8.67,0,0,1-3.52-3.69A12.86,12.86,0,0,1,3,60.6a12.25,12.25,0,0,1,.77-4.47,8.94,8.94,0,0,1,2.14-3.27,8.79,8.79,0,0,1,3.13-2,11.14,11.14,0,0,1,3.77-.64Zm-.7,5.45V51.16H12.79a11.55,11.55,0,0,0-3.53.57,7.39,7.39,0,0,0-2.83,1.75,8.81,8.81,0,0,0-2,3,11.53,11.53,0,0,0-.77,4.14,11.31,11.31,0,0,0,1.2,5.59,8,8,0,0,0,3.29,3.33,10.34,10.34,0,0,0,4.61,1.15h6.82V61.79H15.7V66.1H15A16.39,16.39,0,0,1,12.46,66a9.31,9.31,0,0,1-1.86-.44,2.87,2.87,0,0,1-1.54-1.37A7.16,7.16,0,0,1,8.33,61a6.25,6.25,0,0,1,.8-3.32,4.55,4.55,0,0,1,1.43-1.22,5.72,5.72,0,0,1,1.7-.52A24.74,24.74,0,0,1,15,55.72Z" transform="translate(-0.18 -7.04)"/><path class="cls-1" d="M20.31,71.55,25.9,50.27h8.43L40,71.55H33.59l-1.07-3.83H27.47L26.4,71.55Zm1-.88h4.63L27,66.83h6l1.11,3.84H39L33.87,51.16H26.49Zm8.83-16,2.41,8.74h-5Zm-1.49,7.85h2.8l-1.3-4.74Z" transform="translate(-0.18 -7.04)"/><path class="cls-1" d="M52.65,50.27v6.34H49.23q-3-.12-.9,2.09,3.81,4.19,3.74,8.13c0,2.64-1.29,4.21-3.74,4.72h-9V65.21h3.58c2.22.08,2.5-.69.84-2.33q-4.08-4.71-3.48-8.66t3.86-3.95ZM40,66.1v4.57h8.32a3.81,3.81,0,0,0,3-4.25Q51.25,63,47.2,58.7c-1.25-2-.58-3,2-3h2.71V51.16H44.1q-2.45.06-3.08,3.27t3.36,7.87q3,3.65-1.5,3.8Z" transform="translate(-0.18 -7.04)"/><path class="cls-1" d="M53.35,71.55V50.27h5.53V65.21h9.19v6.34Zm.71-20.39V70.67H67.37V66.1h-9.2V51.16Z" transform="translate(-0.18 -7.04)"/><path class="cls-1" d="M68.78,71.55V50.27H83.34v6.34h-9v2.44h5.83v3.72H74.31v2.44h9.76v6.34Zm.71-20.39V70.67H83.36V66.1H73.6V61.91h5.83v-2H73.6V55.72h9V51.16Z" transform="translate(-0.18 -7.04)"/><path class="cls-1" d="M97.41,50.27v6.34H94q-3-.12-.89,2.09c2.54,2.79,3.78,5.5,3.74,8.13S95.54,71,93.1,71.55h-9V65.21h3.57c2.22.08,2.5-.69.85-2.33Q84.4,58.17,85,54.22c.4-2.63,1.69-3.95,3.85-3.95ZM84.77,66.1v4.57H93.1q3.11-.83,3-4.25T92,58.7c-1.26-2-.58-3,2-3h2.72V51.16H88.86c-1.63,0-2.65,1.13-3.08,3.27s.7,4.76,3.37,7.87q3,3.65-1.51,3.8Z" transform="translate(-0.18 -7.04)"/><path class="cls-1" d="M110.76,50.27v6.34h-3.42q-3-.12-.9,2.09,3.81,4.19,3.74,8.13c-.05,2.64-1.29,4.21-3.74,4.72h-9V65.21H101c2.21.08,2.5-.69.84-2.33q-4.1-4.71-3.48-8.66t3.86-3.95ZM98.12,66.1v4.57h8.32q3.11-.83,3-4.25t-4.14-7.72c-1.25-2-.58-3,2-3h2.71V51.16h-7.84q-2.44.06-3.08,3.27t3.36,7.87c2,2.43,1.47,3.7-1.5,3.8Z" transform="translate(-0.18 -7.04)"/><path class="cls-1" d="M122.63,71.55V50.27h10a9.36,9.36,0,0,1,3.6.64,6.87,6.87,0,0,1,2.63,1.82,9.75,9.75,0,0,1,1.76,3.16,15,15,0,0,1,.71,5,19.41,19.41,0,0,1-.77,5,8.68,8.68,0,0,1-1.72,3.21A7.21,7.21,0,0,1,136.24,71a9.44,9.44,0,0,1-3.87.59Zm.71-.88h9a10.32,10.32,0,0,0,4-.7,6.23,6.23,0,0,0,2-1.53,8.94,8.94,0,0,0,1.48-2.74,14.85,14.85,0,0,0,.76-4.79,20.07,20.07,0,0,0-.34-3.7c-.17-.56-.38-1.16-.64-1.79a7.51,7.51,0,0,0-1.21-2,6.29,6.29,0,0,0-2.29-1.68,7.7,7.7,0,0,0-3.52-.62h-9.31ZM128,55.13h3.55a3.08,3.08,0,0,1,2,.62,4.31,4.31,0,0,1,1.25,1.7,9,9,0,0,1,.54,3.37,10.39,10.39,0,0,1-.61,3.46,4.69,4.69,0,0,1-1.2,1.58,3,3,0,0,1-1.95.62H128Zm.71.89V65.6h2.86a2.56,2.56,0,0,0,1.77-.61,3.76,3.76,0,0,0,.85-1.21,9.9,9.9,0,0,0,0-5.74,4,4,0,0,0-.9-1.41,2.47,2.47,0,0,0-1.76-.61Z" transform="translate(-0.18 -7.04)"/><path class="cls-1" d="M141.47,71.55l5.58-21.28h8.44l5.68,21.28h-6.43l-1.07-3.83h-5l-1.07,3.83Zm1-.88h4.63l1.09-3.84h6.06l1.1,3.84h4.86L155,51.16h-7.39Zm8.83-16,2.41,8.74h-5Zm-1.5,7.85h2.8l-1.29-4.74Z" transform="translate(-0.18 -7.04)"/><path class="cls-1" d="M161.16,50.27h5.53V71.55h-5.53Zm.71.89V70.67H166V51.16Z" transform="translate(-0.18 -7.04)"/></g></g></svg>