<svg xmlns="http://www.w3.org/2000/svg" viewBox="0 0 664.42 202.7"><defs><style>.cls-1{fill:#133444;}.cls-2{fill:#c42370;}.cls-3{fill:#1c4d6b;}.cls-4{fill:#1d4259;}.cls-5{fill:#4b6b9a;}.cls-6{fill:#343535;}.cls-7{fill:#3e5578;}.cls-8{fill:#6db2d8;}.cls-9{fill:#335f8a;}.cls-10{fill:#529bba;}</style></defs><title>Asset 2</title><g id="Layer_2" data-name="Layer 2"><g id="Layer_1-2" data-name="Layer 1"><g id="Layer_2-2" data-name="Layer 2"><g id="Layer_1-2-2" data-name="Layer 1-2"><polygon class="cls-1" points="2 116.73 6.88 114.6 66.93 88.5 131.81 116.73 107.45 167.06 47.8 175.49 3.02 127.11 2 116.73"/><path class="cls-2" d="M118.32,85.66A66.72,66.72,0,0,0,75.8,62.14L74.74,62a64.78,64.78,0,0,0-15.62,0l-1.07.13A66.65,66.65,0,0,0,15.53,85.66h0l-2.7,4.48L8.34,97.6l-3.28,5.46h0c0,.13-.13.31-.18.44l0,.09,7.23,4.31,46,27.2,8.88,5.24v-65l-8.88,4V69.64l8.88-4,8.87,4L121,90.19Z"/><path class="cls-3" d="M133.81,132.88a71.69,71.69,0,0,1-26.23,55,66.89,66.89,0,0,1-21.12,11.72A62.18,62.18,0,0,1,67,202.7C30,202.7,0,169.81,0,132.88a68.72,68.72,0,0,1,2-16.2l64.88,38.39,64.89-38.39A64.4,64.4,0,0,1,133.81,132.88Z"/><polygon points="59.12 62.05 66.93 65.56 58.05 69.59 58.05 61.56 59.12 62.05"/><polygon points="58.05 79.36 66.93 75.32 66.93 140.34 58.05 135.1 58.05 79.36"/><polygon class="cls-4" points="66.93 75.32 66.93 140.34 129.11 103.59 66.93 75.32"/><polygon class="cls-5" points="66.93 0.4 66.93 75.32 129.11 103.59 66.93 0.4"/><path class="cls-6" d="M66.93,75.32v65l-8.88-5.24L4.84,103.59l-.09,0,.13,0c0-.13.14-.31.18-.44h0l7.77-12.92,45.22-20.5V79.4Z"/><polygon class="cls-7" points="66.93 75.32 66.93 140.34 58.05 135.1 4.79 103.64 4.75 103.59 4.84 103.5 58.05 79.36 66.93 75.32"/><polygon class="cls-8" points="66.93 0.4 66.93 75.32 4.75 103.59 66.93 0.4"/><path class="cls-9" d="M41.76,197.37c.94.4,1.87.8,2.8,1.15C43.63,198.17,42.7,197.77,41.76,197.37Z"/><path class="cls-9" d="M44.56,198.52c.93.36,1.91.72,2.88,1C46.47,199.24,45.49,198.92,44.56,198.52Z"/><path class="cls-9" d="M49.89,200.34c.75.23,1.46.4,2.21.58C51.39,200.74,50.64,200.52,49.89,200.34Z"/><path class="cls-8" d="M2,116.73l64.88,38.39a75.23,75.23,0,0,1-4.66,17C57,184.72,46.56,198,26.23,187.87h0A71.64,71.64,0,0,1,0,132.88,70.15,70.15,0,0,1,2,116.73Z"/><path class="cls-10" d="M107.54,187.87l-.18.14c-.35.26-.67.53-1,.8l-.09.08c-.35.31-.75.58-1.11.85a12.07,12.07,0,0,1-1.24.88,12.61,12.61,0,0,0-1.24.89c-.4.31-.76.49-1.11.76l-.23.13c-.39.27-.79.49-1.15.75,0,0-.09,0-.13.09-.4.27-.8.49-1.2.76s-.89.49-1.33.75-.89.49-1.33.71l-.05,0-1.33.66c-.44.22-.89.45-1.38.67s-.93.44-1.37.62c-.93.4-1.87.8-2.8,1.15s-1.91.71-2.88,1a10.31,10.31,0,0,1-1.16.36l-1.28.4c-.76.22-1.47.4-2.22.58-.27.08-.58.13-.85.22l-.48.09-1.2.26c-.4.09-.71.14-1.11.22a7.54,7.54,0,0,1-1,.18c-.36.05-.76.14-1.11.18-.18,0-.36,0-.53.09l-.85.09-.44,0a5.86,5.86,0,0,1-.93.09,9.06,9.06,0,0,1-1.16.09c-.31,0-.57,0-.89,0s-.53.05-.79.05h0c-.31,0-.62,0-.89,0s-.84,0-1.24,0H65.6a10,10,0,0,1-1.25,0c-.31,0-.62,0-.93,0h0c-.27,0-.53-.05-.8-.05s-.58,0-.89,0a11.13,11.13,0,0,0-1.15-.09c-.31,0-.62,0-.93-.09l-.45,0a4.79,4.79,0,0,0-.84-.09,2.35,2.35,0,0,1-.53-.09,8.28,8.28,0,0,1-1.11-.18c-.36,0-.67-.13-1-.18a10.34,10.34,0,0,1-1.11-.22c-.36-.09-.8-.17-1.2-.26l-.49-.09A8,8,0,0,1,52,201c-.76-.18-1.51-.4-2.22-.58l-1.33-.4c-.4-.13-.8-.22-1.16-.36-1-.31-1.91-.66-2.88-1s-1.91-.75-2.8-1.15c-.44-.22-.93-.4-1.38-.62l-1.37-.67-1.33-.66,0,0c-.44-.22-.88-.49-1.33-.71s-.89-.49-1.33-.75-.8-.49-1.2-.76l-.13-.09a10,10,0,0,1-1.16-.75l-.22-.13c-.35-.22-.75-.49-1.11-.76s-.84-.57-1.24-.89-.84-.57-1.24-.88l-1.11-.85-.09-.08c-.36-.27-.67-.54-1-.8l-.18-.14c20.28,10.12,30.8-3.19,36-15.71a75.45,75.45,0,0,0,4.67-17,75.46,75.46,0,0,0,4.66,17.05C76.78,184.68,87.26,198,107.54,187.87Z"/><path class="cls-9" d="M81.71,200.92c.75-.18,1.51-.4,2.22-.58C83.22,200.52,82.46,200.74,81.71,200.92Z"/><path class="cls-9" d="M86.41,199.55c1-.31,1.91-.67,2.89-1C88.36,198.92,87.39,199.24,86.41,199.55Z"/><path class="cls-9" d="M89.3,198.52c.93-.35,1.86-.75,2.79-1.15C91.16,197.77,90.23,198.17,89.3,198.52Z"/><path class="cls-5" d="M133.81,132.88a71.69,71.69,0,0,1-26.23,55c-20.28,10.12-30.8-3.2-36-15.71a75.57,75.57,0,0,1-4.66-17l64.88-38.39A65.55,65.55,0,0,1,133.81,132.88Z"/></g></g><path class="cls-8" d="M205.42,200.7h-22V53.8h22V64.2c8.7-8.7,18.5-13,29.5-13,13.1,0,23.9,4.8,32.3,14.5,8.6,9.6,12.9,21.6,12.9,36.2,0,14.3-4.3,26.1-12.8,35.6a41.32,41.32,0,0,1-32,14.2c-11.1,0-21.1-4.5-29.9-13.4v62.4Zm52.3-98.8c0-9.1-2.5-16.5-7.4-22.3a23.9,23.9,0,0,0-18.9-8.7c-8.1,0-14.6,2.8-19.6,8.4s-7.5,13-7.5,22.1c0,8.9,2.5,16.3,7.5,22.1s11.5,8.5,19.5,8.5a23.77,23.77,0,0,0,18.8-8.6C255.12,117.7,257.72,110.5,257.72,101.9Z"/><path class="cls-8" d="M298.92,100.7a47.59,47.59,0,0,1,14.7-35.1,49.5,49.5,0,0,1,35.9-14.5c14.2,0,26.2,4.9,36.1,14.6s14.6,21.6,14.6,35.7c0,14.3-4.9,26.2-14.7,35.8s-22,14.4-36.4,14.4-26.2-4.9-35.8-14.6S298.92,115.2,298.92,100.7Zm22.5.4c0,9.5,2.5,17,7.6,22.6s12.1,8.4,20.6,8.4,15.5-2.8,20.6-8.3,7.7-12.9,7.7-22.2-2.6-16.6-7.7-22.2-12.1-8.4-20.6-8.4-15.2,2.8-20.4,8.4S321.42,92.2,321.42,101.1Z"/><path class="cls-8" d="M423.62,53.8h22v8.5c4-4.2,7.6-7.1,10.7-8.7a25.08,25.08,0,0,1,11.3-2.4c5.8,0,11.8,1.9,18.2,5.7L475.72,77c-4.2-3-8.2-4.5-12.2-4.5-12,0-18,9-18,27.1v49.3h-22V53.8Z"/><path class="cls-8" d="M521.12,74.3v74.6h-22V74.3h-9.4V53.8h9.4V18.9h22V53.8h17.1V74.3Z"/><path class="cls-8" d="M549.82,14.2a13.76,13.76,0,0,1,4.2-10,14.36,14.36,0,0,1,20.3,0,13.51,13.51,0,0,1,4.2,10.1,13.89,13.89,0,0,1-4.2,10.2,13.51,13.51,0,0,1-10.1,4.2A13.89,13.89,0,0,1,554,24.5,14,14,0,0,1,549.82,14.2Zm25.3,39.6v95.1h-22V53.8Z"/><path class="cls-8" d="M658.22,70,640,79.7c-2.9-5.9-6.4-8.8-10.6-8.8a7.69,7.69,0,0,0-5.2,2,6.64,6.64,0,0,0-2.1,5.1c0,3.6,4.2,7.3,12.7,10.8,11.7,5,19.5,9.6,23.5,13.9s6.1,9.9,6.1,17.1a29.64,29.64,0,0,1-10.2,23,34.38,34.38,0,0,1-23.8,8.8c-16,0-27.2-7.8-33.9-23.3l18.8-8.7q3.9,6.9,6,8.7a13.61,13.61,0,0,0,9.6,3.7q11.1,0,11.1-10.2c0-3.9-2.9-7.6-8.6-10.9-2.2-1.1-4.4-2.2-6.6-3.2s-4.5-2.1-6.7-3.2c-6.4-3.1-10.9-6.2-13.5-9.4-3.3-4-5-9.1-5-15.3,0-8.3,2.8-15.1,8.5-20.5a29.79,29.79,0,0,1,21.1-8.1C643.22,51.1,652.22,57.4,658.22,70Z"/></g></g></svg>