<svg xmlns="http://www.w3.org/2000/svg" viewBox="0 0 161.88 184.88"><defs><style>.cls-1{fill:#95121e;}.cls-2{fill:#db8627;}.cls-3{fill:#dc8627;}.cls-4{fill:#e08a36;}.cls-5{fill:#fff;}.cls-6{fill:#f3ba7e;}</style></defs><title>logo-simply</title><g id="Ebene_2" data-name="Ebene 2"><g id="Layer_2" data-name="Layer 2"><path class="cls-1" d="M79.85,152.25l-.09.07,0-.07Z"/><path class="cls-1" d="M54.9,136.41a34.07,34.07,0,0,1,2.58,10.9,9.17,9.17,0,0,1-2.5-4.86A14.11,14.11,0,0,1,54.9,136.41Z"/><path class="cls-2" d="M11,141.08c-3,0-5.29,4.59-5.29,10.46S8,162,11,162s5.29-4.59,5.29-10.45a18,18,0,0,0-1.17-6.65C14.09,142.47,12.59,141.08,11,141.08Zm1.72,12.46a7.21,7.21,0,0,0-2.59,6.89C8.46,159.52,7,156.18,7,151.54c0-5.48,2.07-9.16,4-9.16,1.06,0,2.15,1.12,2.92,3a13.73,13.73,0,0,1,.63,2.05.09.09,0,0,1,0,0c0,.13.06.27.08.4C14.9,150.28,12.68,153.54,12.68,153.54Z"/><path class="cls-2" d="M150.92,141.08c-1.63,0-3.13,1.39-4.12,3.81a18,18,0,0,0-1.17,6.65c0,5.86,2.32,10.45,5.29,10.45s5.29-4.59,5.29-10.45S153.88,141.08,150.92,141.08Zm.87,19.35a7.21,7.21,0,0,0-2.59-6.89s-2.22-3.26-1.92-5.66c0-.13.05-.27.08-.4a.09.09,0,0,1,0,0,13.73,13.73,0,0,1,.63-2.05c.77-1.88,1.86-3,2.92-3,1.92,0,4,3.68,4,9.16C154.91,156.18,153.42,159.52,151.79,160.43Z"/><path class="cls-1" d="M79.85,152.25l-.09.07,0-.07Z"/><path class="cls-1" d="M79.85,152.25l-.09.07,0-.07Z"/><path class="cls-3" d="M150.42,126.29H146.2c-1.93-2.33-4.16-3.67-6.53-3.67h-12v0c-2.21.11-11.58.72-19.56,4.21a15.35,15.35,0,0,0,.47-5c-.1-7,4.77,0,4.77,0,1.27-1.75,2-6.47,8.26-2.14s9.54.76,9.54.76c-.74-4.12,1.81-8.34,1.81-8.34.42,2.27,1.48,2.81,1.48,2.81a10.46,10.46,0,0,1,5.09-9.31c-9.65-4.56-11.13,4.32-11.13,4.32-1.06-2-.75-6.06,1.17-6.17s3.39-.65,2.75-2.6a4.07,4.07,0,0,1,.32-3.36,6.31,6.31,0,0,0,.94-1.39l.07,0c3.51-6.43,3.86-23.84,3.88-25.95,2.35,1.09,2.37,12.82,2.37,12.82,8-25.52-3.66-50.06-5.41-53.15s-7.58-11-7.58-11C115.38,4.6,94.06-.12,81.59,0,68.83-.12,47,4.6,35.26,19c0,0-6,8-7.75,11.05S14.06,57.55,22,83.24c0,0,0-12.52,2.43-13.49,0,0,.15,19.31,3.8,26.16a5.56,5.56,0,0,0,1.19,1.9,4,4,0,0,1,.32,3.36c-.65,2,.87,2.49,2.82,2.6s2.28,4.22,1.19,6.17c0,0-1.51-8.88-11.38-4.32a10.45,10.45,0,0,1,5.21,9.31s1.07-.54,1.51-2.81c0,0,2.6,4.22,1.85,8.34,0,0,3.35,3.57,9.75-.76s7.15.39,8.45,2.14c0,0,5-7,4.88,0,0,3,.21,4.5.63,5.4-8.16-3.83-18.14-4.49-20.42-4.6v0h-12c-2.38,0-4.6,1.34-6.54,3.67H11.46C5.13,126.29,0,137.13,0,150.51c0,12.81,4.71,23.3,10.67,24.15a5.17,5.17,0,0,0,1.57,0h3.39a11.12,11.12,0,0,0,3.55,3s2.7,1.92,13,1.92h0c2.73.09,6.15.11,10.45,0a12.41,12.41,0,0,0,3.13-.1s2.5-5.86,8.57-7.37c0,0,8.3,12.57,26.65,12.81,18.35-.24,26.66-12.81,26.66-12.81,6.06,1.51,8.56,7.37,8.56,7.37a12.41,12.41,0,0,0,3.13.1c4.3.12,7.72.1,10.45,0h0c10.25,0,12.94-1.92,12.94-1.92a11,11,0,0,0,3.56-3h3.39a5.12,5.12,0,0,0,.78.06,5.25,5.25,0,0,0,.79-.06c6-.85,10.67-11.34,10.67-24.15C161.88,137.13,156.75,126.29,150.42,126.29Zm-24.08-2a35.51,35.51,0,0,1,8,0c-15.5,3.35-13.44,33.15-13.44,33.15C113.66,131.87,126.34,124.29,126.34,124.29ZM129,76.56s5.7,12.41-4.75,21.76c0,0-24.5,11-36.48,0,0,0,14.67-6.8,16.86-8.5C107.16,87.88,121.39,76,129,76.56Zm-37.14,43s-5-6.78-10.94-7.3c-5.89.52-10.94,7.3-10.94,7.3,2.7-8,8.34-16.68,8.34-16.68h5.2S89.18,111.5,91.88,119.51ZM37.1,98.32C26.66,89,32.35,76.56,32.35,76.56,40,76,54.21,87.88,56.72,89.82c2.19,1.7,16.85,8.5,16.85,8.5C61.59,109.35,37.1,98.32,37.1,98.32Zm-1.56,26s12.68,7.58,5.42,33.15c0,0,2.06-29.8-13.44-33.15A35.51,35.51,0,0,1,35.54,124.29ZM15.43,171.85a8.7,8.7,0,0,1-1.24.77,5.54,5.54,0,0,1-2.43.59C5.83,173.21,1,163,1,150.51S5.83,127.8,11.76,127.8a5.54,5.54,0,0,1,2.43.59,8,8,0,0,1,1.24.78,15.58,15.58,0,0,1,4.47,6.52,40.11,40.11,0,0,1,2.6,14.82C22.5,160.32,19.56,168.68,15.43,171.85Zm2.4,2.81h2.49a5.12,5.12,0,0,0,.78.06c6.33,0,11.46-10.84,11.46-24.21a42.59,42.59,0,0,0-2.78-15.81c-1.94-4.76-4.74-7.9-7.89-8.35v-.06h-4a7.1,7.1,0,0,1,4.65-1.92c3.74,0,7.11,3.52,9.37,9.08a46.08,46.08,0,0,1,3,17.06c0,14.43-5.54,26.13-12.37,26.13A7.22,7.22,0,0,1,17.83,174.66Zm17.53,3.26c-2.24.65-7.84,0-7.84,0,11.81-2.38,16.58-14.09,16.58-14.09C45.18,168.38,37.6,177.27,35.36,177.92Zm24.68-29a45.77,45.77,0,0,1-1.64,8.42s-3.69,12.43-14.3,17.34c0,0,6.5-6.94,6.07-11.81a4.68,4.68,0,0,0,3.79.21s4.13-6.11,3.52-15.76a34.07,34.07,0,0,0-2.58-10.9,43.56,43.56,0,0,0-2.75-5.52l-3,.11s2.71-1.62,2.82-2.6A13.72,13.72,0,0,1,56,132C58.39,135.12,60.83,140.44,60,148.91Zm-2.18-19.64s7.22-8.94,9.41-11.46c-.39.65-6.8,11.49-6.37,15.9Zm4.71,3.79s5.57-17.6,8.61-20.36c-.15.36-5.11,12-6.93,21.77Zm22,26.61H77.31l-3.63-6.29,1-1.67,2.67-4.62h7.26l3.21,5.56.42.73Zm-3.63-40.83c-8,.39-12.6,7.58-12.88,8,4.58-10.18,10.12-11.6,12.88-11.59s8.29,1.41,12.88,11.59C93.54,126.42,89,119.23,80.94,118.84Zm16.69,15.63c-1.82-9.81-6.78-21.41-6.93-21.77,3,2.76,8.61,20.36,8.61,20.36Zm-3-16.66c2.19,2.52,9.41,11.46,9.41,11.46l-3,4.44C101.41,129.3,95,118.46,94.61,117.81Zm8.87,39.52a45.45,45.45,0,0,1-1.62-8.18l0-.25h0a34.21,34.21,0,0,1-.11-4.47c.28-6.45,2.59-10.58,4.68-13a13,13,0,0,1,3.47-3c.11,1,2.82,2.6,2.82,2.6l-3-.11a45.44,45.44,0,0,0-2.25,4.36A34.62,34.62,0,0,0,104.36,148a26.82,26.82,0,0,0,3.56,15.07,4.68,4.68,0,0,0,3.79-.21c-.43,4.87,6.07,11.81,6.07,11.81C107.17,169.76,103.48,157.33,103.48,157.33Zm23,20.59c-2.24-.65-9.82-9.54-8.74-14.09,0,0,4.77,11.71,16.58,14.09C134.36,177.92,128.76,178.57,126.52,177.92Zm12.79-1.28c-6.82,0-12.36-11.7-12.36-26.13a46.08,46.08,0,0,1,3-17.06c2.27-5.56,5.62-9.08,9.36-9.08a7.1,7.1,0,0,1,4.66,1.92h-4v.06c-3.15.45-6,3.59-7.9,8.35a42.79,42.79,0,0,0-2.78,15.81c0,13.37,5.14,24.21,11.47,24.21a5.12,5.12,0,0,0,.78-.06h2.49A7.22,7.22,0,0,1,139.31,176.64Zm10.81-3.43a5.57,5.57,0,0,1-2.43-.59,8.7,8.7,0,0,1-1.24-.77c-4.13-3.17-7.07-11.53-7.07-21.34a40.11,40.11,0,0,1,2.6-14.82,15.58,15.58,0,0,1,4.47-6.52,8,8,0,0,1,1.24-.78,5.57,5.57,0,0,1,2.43-.59c5.93,0,10.74,10.17,10.74,22.71S156.05,173.21,150.12,173.21Z"/><rect id="Rectangle" class="cls-4" x="67.72" y="54.07" width="27.27" height="27.26" transform="translate(-24.04 77.35) rotate(-45)"/><polyline class="cls-5" points="86.25 67.32 81.08 62.15 75.91 67.33 68.15 67.33 81.08 54.4 94 67.32"/><polyline class="cls-6" points="81.36 74.52 62.08 67.71 81.35 86.98 100.63 67.7"/></g></g></svg>