<svg xmlns="http://www.w3.org/2000/svg" viewBox="0 0 254.65 254.65"><defs><style>.cls-1{fill:#95121e;}.cls-2{fill:#db8627;}.cls-3{fill:#dc8627;}.cls-4{fill:#e08a36;}.cls-5{fill:#fff;}.cls-6{fill:#f3ba7e;}</style></defs><title>logo</title><g id="Ebene_2" data-name="Ebene 2"><g id="Layer_2" data-name="Layer 2"><path class="cls-1" d="M125.52,182.49l-.1.06,0-.06Z"/><path class="cls-1" d="M100.56,166.64a34.19,34.19,0,0,1,2.58,10.9,9.26,9.26,0,0,1-2.5-4.86A14.11,14.11,0,0,1,100.56,166.64Z"/><path class="cls-2" d="M56.62,171.31c-3,0-5.29,4.59-5.29,10.46s2.33,10.45,5.29,10.45,5.29-4.59,5.29-10.45a18.06,18.06,0,0,0-1.17-6.65C59.75,172.7,58.25,171.31,56.62,171.31Zm1.72,12.46a7.22,7.22,0,0,0-2.59,6.9c-1.63-.91-3.12-4.26-3.12-8.9,0-5.48,2.07-9.16,4-9.16,1.06,0,2.15,1.12,2.92,3a14.5,14.5,0,0,1,.63,2,.11.11,0,0,1,0,.05c0,.13.06.27.08.4C60.56,180.52,58.34,183.77,58.34,183.77Z"/><path class="cls-2" d="M196.58,171.31c-1.63,0-3.13,1.39-4.12,3.81a18.06,18.06,0,0,0-1.17,6.65c0,5.86,2.32,10.45,5.29,10.45s5.29-4.59,5.29-10.45S199.54,171.31,196.58,171.31Zm.87,19.36a7.22,7.22,0,0,0-2.59-6.9s-2.22-3.25-1.92-5.66c0-.13.05-.27.08-.4a.43.43,0,0,0,0-.05,14.5,14.5,0,0,1,.63-2c.77-1.88,1.86-3,2.92-3,1.92,0,4,3.68,4,9.16C200.57,186.41,199.08,189.76,197.45,190.67Z"/><path class="cls-1" d="M125.52,182.49l-.1.06,0-.06Z"/><path class="cls-1" d="M125.52,182.49l-.1.06,0-.06Z"/><path class="cls-3" d="M196.08,156.52h-4.22c-1.92-2.33-4.15-3.67-6.53-3.67h-12v0c-2.21.11-11.58.73-19.56,4.22a15.46,15.46,0,0,0,.47-5c-.1-6.95,4.77,0,4.77,0,1.27-1.75,2-6.47,8.27-2.14s9.53.76,9.53.76c-.74-4.12,1.81-8.34,1.81-8.34.42,2.27,1.48,2.81,1.48,2.81a10.46,10.46,0,0,1,5.09-9.31c-9.64-4.55-11.13,4.33-11.13,4.33-1.06-2-.74-6.07,1.17-6.18s3.39-.65,2.75-2.6a4,4,0,0,1,.32-3.35,6.34,6.34,0,0,0,.94-1.4l.07-.05c3.51-6.42,3.86-23.84,3.89-25.95,2.34,1.09,2.36,12.82,2.36,12.82,8-25.51-3.66-50.06-5.4-53.15s-7.59-11-7.59-11c-11.52-14.44-32.84-19.16-45.31-19-12.75-.13-34.55,4.59-46.33,19,0,0-6,8-7.75,11s-13.45,27.47-5.52,53.15c0,0,0-12.51,2.44-13.49,0,0,.14,19.32,3.79,26.17a5.82,5.82,0,0,0,1.19,1.9,4,4,0,0,1,.32,3.35c-.65,1.95.87,2.5,2.82,2.6s2.28,4.23,1.19,6.18c0,0-1.51-8.88-11.37-4.33a10.45,10.45,0,0,1,5.2,9.31s1.08-.54,1.51-2.81c0,0,2.6,4.22,1.85,8.34,0,0,3.35,3.58,9.75-.76s7.15.39,8.45,2.14c0,0,5-6.95,4.88,0,0,3,.21,4.5.63,5.41-8.16-3.84-18.13-4.5-20.42-4.61v0h-12c-2.38,0-4.61,1.34-6.54,3.67H57.12c-6.33,0-11.46,10.85-11.46,24.22,0,12.81,4.71,23.3,10.68,24.15a4.38,4.38,0,0,0,1.56,0h3.39a11.22,11.22,0,0,0,3.56,3s2.69,1.91,12.94,1.91h0c2.73.09,6.15.11,10.45,0a12.41,12.41,0,0,0,3.13-.1s2.5-5.85,8.57-7.37c0,0,8.3,12.57,26.65,12.82,18.35-.25,26.66-12.82,26.66-12.82,6.06,1.52,8.56,7.37,8.56,7.37a12.41,12.41,0,0,0,3.13.1c4.3.12,7.72.1,10.46,0h0c10.25,0,13-1.91,13-1.91a11.3,11.3,0,0,0,3.55-3h3.39a4.44,4.44,0,0,0,1.57,0c6-.85,10.67-11.34,10.67-24.15C207.54,167.37,202.41,156.52,196.08,156.52Zm-24.08-2a35.51,35.51,0,0,1,8,0c-15.5,3.35-13.44,33.16-13.44,33.16C159.32,162.1,172,154.52,172,154.52Zm2.68-47.73s5.7,12.41-4.75,21.76c0,0-24.49,11-36.48,0,0,0,14.67-6.8,16.86-8.5C152.82,118.12,167.05,106.18,174.68,106.79Zm-37.14,43s-5-6.79-10.94-7.3c-5.89.51-10.94,7.3-10.94,7.3,2.7-8,8.34-16.69,8.34-16.69h5.2S134.84,141.73,137.54,149.75Zm-54.78-21.2C72.32,119.2,78,106.79,78,106.79c7.63-.61,21.85,11.33,24.36,13.26,2.19,1.7,16.85,8.5,16.85,8.5C107.25,139.58,82.76,128.55,82.76,128.55Zm-1.56,26s12.68,7.58,5.42,33.16c0,0,2.06-29.81-13.44-33.16A35.51,35.51,0,0,1,81.2,154.52ZM61.09,202.08a7.45,7.45,0,0,1-1.24.77,5.54,5.54,0,0,1-2.43.59c-5.93,0-10.74-10.17-10.74-22.7S51.49,158,57.42,158a5.53,5.53,0,0,1,2.43.58,7.52,7.52,0,0,1,1.24.78,15.58,15.58,0,0,1,4.47,6.52,40.18,40.18,0,0,1,2.6,14.82C68.16,190.56,65.22,198.91,61.09,202.08Zm2.4,2.81H66a5.14,5.14,0,0,0,.78.07c6.33,0,11.47-10.85,11.47-24.22a42.58,42.58,0,0,0-2.79-15.81c-1.93-4.76-4.74-7.89-7.89-8.35v-.06h-4a7.17,7.17,0,0,1,4.65-1.92c3.74,0,7.11,3.52,9.38,9.08a46.34,46.34,0,0,1,3,17.06c0,14.43-5.54,26.13-12.37,26.13A7.22,7.22,0,0,1,63.49,204.89ZM81,208.15c-2.24.66-7.84,0-7.84,0,11.81-2.38,16.58-14.08,16.58-14.08C90.84,198.62,83.26,207.5,81,208.15Zm24.69-29a46.55,46.55,0,0,1-1.65,8.42S100.38,200,89.76,204.9c0,0,6.5-6.93,6.07-11.81a4.66,4.66,0,0,0,3.79.22s4.14-6.12,3.52-15.77a34.19,34.19,0,0,0-2.58-10.9,42.17,42.17,0,0,0-2.75-5.51l-3,.1s2.7-1.62,2.81-2.6a13.72,13.72,0,0,1,4,3.63C104.05,165.35,106.49,170.67,105.71,179.14Zm-2.19-19.64s7.22-8.93,9.41-11.46c-.39.65-6.79,11.49-6.37,15.91Zm4.72,3.8s5.56-17.6,8.6-20.37c-.15.36-5.11,12-6.93,21.77Zm22,26.6H123l-3.63-6.29,1-1.67,2.67-4.62h7.26l3.21,5.56.42.73Zm-3.63-40.83c-8,.4-12.6,7.58-12.88,8,4.59-10.18,10.12-11.6,12.88-11.59s8.3,1.41,12.88,11.59C139.2,156.65,134.62,149.47,126.6,149.07Zm16.69,15.63c-1.82-9.81-6.78-21.41-6.93-21.77,3,2.77,8.61,20.37,8.61,20.37Zm-3-16.66c2.2,2.53,9.41,11.46,9.41,11.46l-3,4.45C147.07,159.53,140.66,148.69,140.27,148Zm8.87,39.52a45.12,45.12,0,0,1-1.62-8.18,2.11,2.11,0,0,1,0-.25h0a32.8,32.8,0,0,1-.12-4.48c.28-6.45,2.59-10.57,4.68-13a12.94,12.94,0,0,1,3.47-3c.11,1,2.82,2.6,2.82,2.6l-2.95-.1a41.37,41.37,0,0,0-2.26,4.36A34.53,34.53,0,0,0,150,178.23c-.37,9.26,3.56,15.08,3.56,15.08a4.66,4.66,0,0,0,3.79-.22c-.43,4.88,6.07,11.81,6.07,11.81C152.83,200,149.14,187.56,149.14,187.56Zm23,20.59c-2.24-.65-9.82-9.53-8.74-14.08,0,0,4.77,11.7,16.58,14.08C180,208.15,174.42,208.81,172.18,208.15Zm12.8-1.28c-6.83,0-12.37-11.7-12.37-26.13a46.12,46.12,0,0,1,3-17.06c2.27-5.56,5.62-9.08,9.37-9.08a7.15,7.15,0,0,1,4.65,1.92h-4v.06c-3.15.46-6,3.59-7.9,8.35A42.8,42.8,0,0,0,175,180.74c0,13.37,5.13,24.22,11.46,24.22a5,5,0,0,0,.78-.07h2.49A7.22,7.22,0,0,1,185,206.87Zm10.8-3.43a5.57,5.57,0,0,1-2.43-.59,7.88,7.88,0,0,1-1.24-.77C188,198.91,185,190.56,185,180.74a40.18,40.18,0,0,1,2.6-14.82,15.58,15.58,0,0,1,4.47-6.52,8,8,0,0,1,1.24-.78,5.56,5.56,0,0,1,2.43-.58c5.93,0,10.74,10.16,10.74,22.7S201.71,203.44,195.78,203.44Z"/><path class="cls-3" d="M14.63,113.39a114.25,114.25,0,0,1,225.39,0,149.22,149.22,0,0,1,14.48,20.06c.09-2,.15-4.07.15-6.13A127.33,127.33,0,0,0,0,127.32q0,3.09.15,6.13A149.22,149.22,0,0,1,14.63,113.39Z"/><path class="cls-3" d="M13.53,142.27c-.29-3.33-.45-6.7-.45-10.1,0-2.85.11-5.67.31-8.47A143.65,143.65,0,0,0,1,143.2a130.32,130.32,0,0,0,2.29,12.88A147.85,147.85,0,0,1,13.53,142.27Z"/><path class="cls-3" d="M241.12,142.27a147.75,147.75,0,0,1,10.25,13.81,124.72,124.72,0,0,0,2.29-12.88,142.69,142.69,0,0,0-12.41-19.5q.31,4.2.32,8.47C241.57,135.57,241.41,138.94,241.12,142.27Z"/><path class="cls-3" d="M18.19,166a113.15,113.15,0,0,1-3.74-16.1,145.26,145.26,0,0,0-9.27,13.46,125.66,125.66,0,0,0,4.51,12.74C12.38,172.62,15.21,169.24,18.19,166Z"/><path class="cls-3" d="M245,176.11a128.15,128.15,0,0,0,4.51-12.74,143.44,143.44,0,0,0-9.28-13.46,111.78,111.78,0,0,1-3.73,16.1Q240.93,170.87,245,176.11Z"/><path class="cls-3" d="M127.32,254.65a127.18,127.18,0,0,0,106-56.72q-3.61-4-7.54-7.75a114.23,114.23,0,0,1-196.82,0q-3.91,3.73-7.53,7.75A127.17,127.17,0,0,0,127.32,254.65Z"/><path class="cls-3" d="M26.15,185.23A113.18,113.18,0,0,1,20.22,172q-4.2,4.75-8,9.88a127.66,127.66,0,0,0,6.06,11.24Q22.08,189,26.15,185.23Z"/><path class="cls-3" d="M236.34,193.11a127.57,127.57,0,0,0,6-11.24q-3.76-5.12-8-9.88a114.86,114.86,0,0,1-5.93,13.24Q232.57,189,236.34,193.11Z"/><rect id="Rectangle" class="cls-4" x="113.38" y="84.3" width="27.27" height="27.26" transform="translate(-32.05 118.49) rotate(-45)"/><polyline class="cls-5" points="131.91 97.56 126.74 92.39 121.57 97.56 113.81 97.56 126.74 84.63 139.66 97.56"/><polyline class="cls-6" points="127.02 104.75 107.74 97.94 127.01 117.21 146.29 97.94"/></g></g></svg>